<?xml version="1.0" standalone="no"?>
<!DOCTYPE svg PUBLIC "-//W3C//DTD SVG 20010904//EN"
 "http://www.w3.org/TR/2001/REC-SVG-20010904/DTD/svg10.dtd">
<svg version="1.0" xmlns="http://www.w3.org/2000/svg"
 width="158.000000pt" height="75.000000pt" viewBox="0 0 158.000000 75.000000"
 preserveAspectRatio="xMidYMid meet">

<g transform="translate(0.000000,75.000000) scale(0.100000,-0.100000)"
fill="#000000" stroke="none">
<path d="M261 720 c-72 -26 -168 -98 -194 -145 -7 -13 2 -9 27 12 116 103 304
132 440 70 33 -15 80 -44 105 -65 l46 -37 -35 44 c-96 122 -251 171 -389 121z"/>
<path d="M774 455 c0 -148 2 -211 3 -138 2 72 2 194 0 270 -1 76 -3 17 -3
-132z"/>
<path d="M868 615 c-2 -37 0 -45 13 -45 12 0 16 6 12 20 -4 16 0 20 17 20 17
0 21 -4 17 -20 -4 -14 0 -20 12 -20 13 0 15 8 13 45 -4 44 -22 65 -22 25 0
-13 -7 -20 -20 -20 -13 0 -20 7 -20 20 0 40 -18 19 -22 -25z"/>
<path d="M982 601 c-1 -27 3 -31 25 -31 19 0 24 4 19 16 -3 9 -6 23 -6 32 0
15 -2 15 -10 2 -8 -12 -12 -12 -18 -2 -6 9 -9 3 -10 -17z m28 -11 c0 -5 -4
-10 -10 -10 -5 0 -10 5 -10 10 0 6 5 10 10 10 6 0 10 -4 10 -10z"/>
<path d="M1045 600 c0 -17 5 -30 12 -30 7 0 10 7 6 16 -4 11 1 22 12 30 18 13
17 14 -6 14 -20 0 -24 -5 -24 -30z"/>
<path d="M1100 619 c0 -5 5 -7 10 -4 6 3 10 8 10 11 0 2 -4 4 -10 4 -5 0 -10
-5 -10 -11z"/>
<path d="M1118 609 c-25 -27 -22 -39 10 -39 26 0 28 3 24 30 -5 34 -10 36 -34
9z m17 -19 c-3 -5 -11 -10 -16 -10 -6 0 -7 5 -4 10 3 6 11 10 16 10 6 0 7 -4
4 -10z"/>
<path d="M1170 600 c0 -19 5 -30 14 -30 9 0 12 7 9 21 -4 12 0 25 8 30 11 6 8
9 -8 9 -19 0 -23 -6 -23 -30z"/>
<path d="M1224 615 c-4 -8 -4 -22 0 -30 6 -16 41 -21 50 -6 4 5 -3 7 -14 4
-19 -5 -25 4 -21 35 3 17 -8 15 -15 -3z"/>
<path d="M1260 620 c0 -5 5 -10 11 -10 5 0 7 5 4 10 -3 6 -8 10 -11 10 -2 0
-4 -4 -4 -10z"/>
<path d="M1522 478 c-16 -16 -16 -88 1 -88 8 0 11 14 9 45 -4 40 -2 44 14 38
12 -4 15 -3 10 5 -9 15 -19 15 -34 0z"/>
<path d="M875 435 c0 -25 4 -45 10 -45 6 0 9 18 7 45 -5 58 -17 58 -17 0z"/>
<path d="M1058 464 c-12 -11 -10 -62 3 -69 14 -10 15 -5 9 38 -3 22 -8 35 -12
31z"/>
<path d="M1138 465 c-2 -2 -2 -20 0 -40 3 -24 9 -35 21 -35 13 0 13 2 2 9 -8
6 -12 19 -9 35 5 24 -3 42 -14 31z"/>
<path d="M1258 465 c-2 -2 -2 -20 0 -40 3 -23 9 -35 19 -35 13 0 13 3 3 15 -7
8 -10 24 -7 35 5 19 -5 35 -15 25z"/>
<path d="M919 456 c-6 -10 -1 -66 6 -66 6 0 11 10 10 23 0 12 5 22 10 22 6 0
10 -10 10 -22 -1 -13 4 -23 11 -23 8 0 9 11 5 33 -5 24 -12 32 -29 33 -12 1
-22 1 -23 0z"/>
<path d="M995 449 c-4 -5 1 -20 12 -31 16 -20 17 -21 1 -15 -10 4 -18 2 -18
-3 0 -14 37 -12 46 1 4 7 -4 20 -17 31 -17 14 -19 18 -6 14 11 -3 16 -2 12 4
-8 13 -22 13 -30 -1z"/>
<path d="M1325 450 c3 -6 -1 -7 -9 -4 -12 5 -16 -1 -16 -20 0 -29 25 -45 42
-28 7 7 5 10 -7 9 -10 -1 -20 4 -22 11 -3 8 5 12 22 12 23 0 26 2 15 15 -14
17 -35 21 -25 5z"/>
<path d="M1436 444 c-12 -12 -13 -20 -6 -35 11 -20 19 -23 44 -13 30 12 14 64
-19 64 -2 0 -11 -7 -19 -16z m38 -11 c9 -22 -10 -41 -25 -26 -13 13 -5 43 10
43 5 0 12 -8 15 -17z"/>
<path d="M1100 422 c0 -18 5 -32 10 -32 6 0 8 11 4 28 -10 39 -14 40 -14 4z"/>
<path d="M1183 426 c1 -16 9 -32 17 -34 12 -4 13 -2 4 9 -7 8 -14 23 -17 34
-4 13 -5 9 -4 -9z"/>
<path d="M1220 422 c0 -18 5 -32 10 -32 6 0 8 11 4 28 -10 39 -14 40 -14 4z"/>
<path d="M430 368 c0 -25 4 -28 31 -28 l32 0 -5 -65 -6 -65 33 0 33 0 -6 65
-5 65 32 0 c27 0 31 3 31 28 l0 27 -85 0 -85 0 0 -27z"/>
<path d="M125 300 l0 -90 33 0 c30 0 32 2 32 35 0 34 2 35 36 35 36 0 36 0 30
-35 -7 -34 -6 -35 26 -35 l33 0 0 90 0 90 -33 0 c-32 0 -33 -1 -27 -30 6 -29
5 -30 -29 -30 -33 0 -36 2 -36 30 0 27 -3 30 -32 30 l-33 0 0 -90z"/>
<path d="M345 300 l0 -90 30 0 30 0 0 90 0 90 -30 0 -30 0 0 -90z"/>
<path d="M1079 262 c-3 -36 0 -52 8 -52 7 0 11 12 10 26 -1 15 4 29 12 32 10
3 13 -3 9 -27 -3 -22 -1 -31 10 -31 9 0 12 6 8 16 -3 9 -6 24 -6 35 0 12 -7
19 -19 19 -11 0 -21 8 -24 18 -2 9 -5 -7 -8 -36z"/>
<path d="M1309 262 c-2 -32 0 -52 6 -52 7 0 9 16 7 38 -6 65 -8 68 -13 14z"/>
<path d="M860 289 c0 -5 5 -7 10 -4 6 3 10 8 10 11 0 2 -4 4 -10 4 -5 0 -10
-5 -10 -11z"/>
<path d="M898 270 c2 -17 -1 -37 -8 -45 -10 -12 -9 -15 6 -15 16 0 19 6 16 45
-2 25 -7 45 -11 45 -4 0 -6 -14 -3 -30z"/>
<path d="M935 290 c3 -5 8 -10 11 -10 2 0 4 5 4 10 0 6 -5 10 -11 10 -5 0 -7
-4 -4 -10z"/>
<path d="M952 268 c-26 -26 2 -68 34 -50 12 7 24 6 36 -1 13 -9 21 -8 30 2 11
10 9 12 -7 9 -15 -2 -21 3 -23 20 -3 21 -1 23 18 17 15 -5 20 -4 16 4 -12 19
-36 12 -48 -13 -14 -31 -33 -39 -48 -20 -10 12 -8 14 15 14 17 0 25 5 23 13
-6 17 -31 20 -46 5z"/>
<path d="M1159 276 c0 0 -1 -16 -2 -34 -1 -19 3 -32 10 -32 7 0 10 7 7 15 -4
8 -3 23 0 32 6 15 8 15 16 3 5 -8 7 -23 4 -32 -3 -10 0 -18 6 -18 7 0 10 13 8
33 -2 25 -8 32 -25 33 -13 1 -23 1 -24 0z"/>
<path d="M1230 265 c-25 -30 15 -70 45 -45 20 16 19 46 -1 54 -23 9 -30 8 -44
-9z m44 -12 c8 -19 -8 -38 -23 -29 -16 10 -13 46 3 46 8 0 17 -8 20 -17z"/>
<path d="M1350 266 c-27 -33 18 -72 48 -42 13 13 14 20 6 34 -15 23 -38 26
-54 8z m38 -24 c2 -15 -2 -22 -12 -22 -11 0 -16 9 -16 26 0 31 23 28 28 -4z"/>
<path d="M1434 272 c-17 -11 -13 -80 4 -87 12 -4 13 -3 2 10 -10 13 -9 15 9
15 12 0 19 -4 16 -10 -3 -5 -1 -10 4 -10 6 0 11 7 11 15 0 8 -9 15 -20 15 -20
0 -20 0 1 21 17 17 19 23 8 30 -17 11 -21 11 -35 1z m26 -17 c0 -8 -4 -15 -10
-15 -5 0 -10 7 -10 15 0 8 5 15 10 15 6 0 10 -7 10 -15z"/>
<path d="M1505 250 c19 -38 19 -48 -2 -52 -13 -2 -14 -6 -6 -11 8 -5 19 3 30
19 13 20 14 29 5 32 -6 2 -12 12 -12 23 0 10 -7 19 -15 19 -14 0 -14 -3 0 -30z"/>
<path d="M1540 265 c0 -8 2 -15 4 -15 2 0 6 7 10 15 3 8 1 15 -4 15 -6 0 -10
-7 -10 -15z"/>
<path d="M530 61 c-6 -12 -7 -21 -1 -21 10 0 24 30 17 37 -2 3 -9 -5 -16 -16z"/>
<path d="M570 60 c-6 -12 -7 -20 -1 -20 5 0 12 6 14 13 4 9 8 8 16 -3 9 -13
11 -13 11 1 0 25 -28 31 -40 9z"/>
<path d="M896 63 c-9 -23 -7 -29 5 -13 8 11 12 12 16 2 5 -13 23 -7 23 7 0 16
-39 19 -44 4z"/>
<path d="M1380 61 c-6 -12 -7 -21 -1 -21 10 0 24 30 17 37 -2 3 -9 -5 -16 -16z"/>
<path d="M37 57 c-3 -7 3 -13 12 -14 10 -1 18 5 18 13 0 18 -23 19 -30 1z"/>
<path d="M97 63 c-14 -13 -6 -24 15 -21 12 2 23 10 25 18 4 13 3 13 -6 0 -9
-12 -13 -12 -19 -2 -5 7 -11 9 -15 5z"/>
<path d="M167 63 c-14 -13 -7 -23 16 -22 21 0 21 1 2 8 -19 8 -18 9 5 13 21 4
21 6 4 7 -11 0 -24 -2 -27 -6z"/>
<path d="M225 59 c-9 -14 4 -27 13 -13 4 6 14 14 22 17 10 4 8 6 -7 6 -12 1
-25 -4 -28 -10z"/>
<path d="M290 54 c0 -8 5 -12 10 -9 6 3 10 10 10 16 0 5 -4 9 -10 9 -5 0 -10
-7 -10 -16z"/>
<path d="M316 55 c-3 -8 -1 -15 4 -15 6 0 10 7 10 15 0 8 -2 15 -4 15 -2 0 -6
-7 -10 -15z"/>
<path d="M364 61 c4 -5 0 -11 -6 -14 -7 -2 -1 -4 13 -4 15 0 26 5 26 13 0 8
-9 14 -19 14 -11 0 -17 -4 -14 -9z"/>
<path d="M427 55 c-3 -6 3 -11 12 -12 10 -1 18 4 18 11 0 16 -25 17 -30 1z"/>
<path d="M636 54 c-6 -15 -4 -15 11 -3 10 7 20 15 22 16 2 2 -3 3 -11 3 -9 0
-19 -7 -22 -16z"/>
<path d="M687 63 c-10 -10 -8 -23 4 -23 5 0 7 5 4 10 -3 6 1 10 10 10 9 0 13
-4 10 -10 -3 -5 -1 -10 4 -10 6 0 11 7 11 15 0 15 -31 21 -43 8z"/>
<path d="M757 63 c-14 -13 -6 -24 15 -21 12 2 23 10 25 18 4 13 3 13 -6 0 -9
-12 -13 -12 -19 -2 -5 7 -11 9 -15 5z"/>
<path d="M827 63 c-13 -12 -7 -30 11 -30 16 0 32 14 32 30 0 9 -34 9 -43 0z
m30 -9 c-3 -3 -12 -4 -19 -1 -8 3 -5 6 6 6 11 1 17 -2 13 -5z"/>
<path d="M1005 59 c-4 -6 -5 -12 -2 -15 2 -3 7 2 10 11 7 17 1 20 -8 4z"/>
<path d="M1036 55 c-7 -18 10 -20 17 -2 4 9 8 8 16 -3 9 -13 11 -13 11 3 0 21
-35 23 -44 2z"/>
<path d="M1106 54 c-6 -14 -4 -15 10 -4 13 12 17 11 25 -1 7 -11 9 -11 9 4 0
22 -36 23 -44 1z"/>
<path d="M1175 59 c-4 -6 -4 -13 0 -17 4 -4 10 -1 12 6 3 6 9 12 14 12 6 0 7
-4 4 -10 -3 -5 -1 -10 4 -10 6 0 11 7 11 15 0 17 -35 20 -45 4z"/>
<path d="M1251 58 c-1 -10 3 -18 8 -18 5 0 15 8 22 18 13 15 12 16 -3 4 -13
-10 -17 -10 -21 0 -4 8 -6 7 -6 -4z"/>
<path d="M1307 56 c-4 -9 3 -13 19 -13 13 0 24 5 24 11 0 16 -37 18 -43 2z"/>
<path d="M1416 55 c-3 -8 -1 -15 3 -15 5 0 11 7 15 15 3 8 1 15 -3 15 -5 0
-11 -7 -15 -15z"/>
<path d="M1457 63 c-10 -10 -8 -23 4 -23 5 0 7 5 4 10 -3 6 1 10 10 10 9 0 13
-4 10 -10 -3 -5 -1 -10 4 -10 6 0 11 7 11 15 0 15 -31 21 -43 8z"/>
<path d="M1525 53 c-5 -15 -4 -16 6 -5 16 15 33 16 23 0 -4 -7 -3 -8 4 -4 18
11 14 26 -7 26 -10 0 -22 -8 -26 -17z"/>
</g>
</svg>
